# xmcd CD database file
#
# Track frame offsets:
#	150
#	8421
#	17697
#	35643
#	52382
#	64058
#	78481
#	91915
#	107968
#	120491
#	135079
#	153442
#	175128
#	190981
#	203437
#	214563
#	238077
#	249367
#	272998
#	290671
#
# Disc length: 4029 seconds
#
# Revision: 2
# Processed by: cddbd v1.5.2PL0 Copyright (c) Steve Scherf et al.
# Submitted via: CDex 1.70beta2
#
DISCID=120fbb14
DTITLE=JIMI HENDRIX - The Psychedelic Voodoo Child
DYEAR=1989
DGENRE=Blues Rock
TTITLE0=Fool For You Baby
TTITLE1=Happy Birthday
TTITLE2=Don't Accuse Me
TTITLE3=Hornet's Nest
TTITLE4=Flashing
TTITLE5=Odd Ball
TTITLE6=Strange Things
TTITLE7=Welcome Home
TTITLE8=Day Tripper
TTITLE9=Simon Says
TTITLE10=Good Times
TTITLE11=Voices
TTITLE12=Soul Food
TTITLE13=Voice In The WInd
TTITLE14=She's So Fine
TTITLE15=Hush Now
TTITLE16=No Business
TTITLE17=Lov, Love
TTITLE18=Bring My Baby Back
TTITLE19=Psycho
EXTD=YEAR: 1989
EXTT0=
EXTT1=
EXTT2=
EXTT3=
EXTT4=
EXTT5=
EXTT6=
EXTT7=
EXTT8=
EXTT9=
EXTT10=
EXTT11=
EXTT12=
EXTT13=
EXTT14=
EXTT15=
EXTT16=
EXTT17=
EXTT18=
EXTT19=
PLAYORDER=
